<svg width="247" height="141" viewBox="0 0 247 141" fill="none" xmlns="http://www.w3.org/2000/svg">
<path d="M244.998 38.1445C243.183 35.7234 241.369 34.5129 239.554 34.2103C240.764 32.3945 240.159 30.5787 239.554 28.7629C238.344 25.4339 233.505 23.3155 229.876 23.3155C225.339 23.3155 219.592 29.0655 221.407 34.2103C221.407 34.2103 212.334 39.0524 208.099 40.2629C191.162 45.7103 158.498 28.7629 130.37 45.4077C102.242 61.7499 111.316 91.1053 115.852 98.6711C123.111 111.382 143.98 115.619 175.132 94.1316C213.241 68.1052 207.494 58.1183 231.69 50.8551C240.159 56.3025 251.047 46.6182 244.998 38.1445ZM183.601 33.9076C183.903 33.9076 184.206 33.9076 184.508 33.9076C188.743 29.9734 193.279 27.2497 201.748 25.1313C209.309 30.5787 219.592 22.1049 214.148 13.9338C212.636 11.5128 210.821 10.6049 209.309 9.99962C210.519 8.48646 209.914 6.67066 209.612 5.15749C208.704 2.13116 204.167 0.0127358 201.143 0.0127358C197.211 -0.289897 191.767 4.85486 192.977 9.69699C192.977 9.69699 184.508 13.6312 180.879 14.8418C169.083 18.1707 149.424 9.69699 129.16 11.5128C144.283 16.3549 160.312 23.6181 174.83 32.9997C177.854 32.9997 180.879 33.605 183.601 33.9076ZM178.459 98.9737C163.034 109.566 148.517 115.013 136.116 115.013C124.623 115.013 115.247 110.171 110.408 101.395C104.662 91.7105 95.5883 58.7235 127.345 40.2629C136.721 34.8155 147.61 32.0918 160.615 32.0918C160.917 32.0918 161.22 32.0918 161.22 32.0918C140.048 20.2891 116.76 12.1181 97.7054 12.1181C49.3136 12.1181 1.2242 48.7366 0.0143994 95.9474C-1.1954 143.158 74.1144 142.553 117.667 140.132C161.22 137.711 224.734 118.948 223.222 99.8816C222.617 91.1053 217.778 81.7236 210.519 72.342C204.47 78.6973 195.699 87.4737 178.459 98.9737Z" fill="#EA580C"/>
</svg>
