<svg width="629" height="165" viewBox="0 0 629 165" fill="none" xmlns="http://www.w3.org/2000/svg">
<path d="M244.998 57.1445C243.183 54.7234 241.369 53.5129 239.554 53.2103C240.764 51.3945 240.159 49.5787 239.554 47.7629C238.344 44.4339 233.505 42.3155 229.876 42.3155C225.339 42.3155 219.592 48.0655 221.407 53.2103C221.407 53.2103 212.334 58.0524 208.099 59.2629C191.162 64.7103 158.498 47.7629 130.37 64.4077C102.242 80.7499 111.316 110.105 115.852 117.671C123.111 130.382 143.98 134.619 175.132 113.132C213.241 87.1052 207.494 77.1183 231.69 69.8551C240.159 75.3025 251.047 65.6182 244.998 57.1445ZM183.601 52.9076C183.903 52.9076 184.206 52.9076 184.508 52.9076C188.743 48.9734 193.279 46.2497 201.748 44.1313C209.309 49.5787 219.592 41.1049 214.148 32.9338C212.636 30.5128 210.821 29.6049 209.309 28.9996C210.519 27.4865 209.914 25.6707 209.612 24.1575C208.704 21.1312 204.167 19.0127 201.143 19.0127C197.211 18.7101 191.767 23.8549 192.977 28.697C192.977 28.697 184.508 32.6312 180.879 33.8418C169.083 37.1707 149.424 28.697 129.16 30.5128C144.283 35.3549 160.312 42.6181 174.83 51.9997C177.854 51.9997 180.879 52.605 183.601 52.9076ZM178.459 117.974C163.034 128.566 148.517 134.013 136.116 134.013C124.623 134.013 115.247 129.171 110.408 120.395C104.662 110.711 95.5883 77.7235 127.345 59.2629C136.721 53.8155 147.61 51.0918 160.615 51.0918C160.917 51.0918 161.22 51.0918 161.22 51.0918C140.048 39.2891 116.76 31.1181 97.7054 31.1181C49.3136 31.1181 1.2242 67.7366 0.0143994 114.947C-1.1954 162.158 74.1144 161.553 117.667 159.132C161.22 156.711 224.734 137.948 223.222 118.882C222.617 110.105 217.778 100.724 210.519 91.342C204.47 97.6973 195.699 106.474 178.459 117.974Z" fill="#EA580C"/>
<line x1="259.5" x2="259.5" y2="165" stroke="#F97316"/>
<path d="M320.545 47.8369C320.249 47.5407 319.93 47.1305 319.588 46.6064C319.246 46.0596 318.916 45.5013 318.597 44.9316C318.528 44.8177 318.346 44.5101 318.05 44.0088C317.754 43.5075 317.48 43.0745 317.229 42.71C316.979 42.3454 316.74 42.0492 316.512 41.8213C314.985 40.2946 313.287 39.1553 311.419 38.4033C309.573 37.6514 307.625 37.2754 305.574 37.2754C302.612 37.2754 299.843 38.0501 297.269 39.5996C294.716 41.1263 292.666 43.3594 291.116 46.2988C289.59 49.2383 288.826 52.7246 288.826 56.7578C288.826 60.8822 289.567 64.4938 291.048 67.5928C292.552 70.6689 294.671 73.0501 297.405 74.7363C300.162 76.3997 303.364 77.2314 307.01 77.2314C310.109 77.2314 312.854 76.5934 315.247 75.3174C317.662 74.0186 319.531 72.1159 320.853 69.6094L322.527 69.8486L322.22 76.3086C319.736 77.6986 316.865 78.8151 313.606 79.6582C310.371 80.4785 307.352 80.8887 304.549 80.8887C300.083 80.8887 296.049 79.9658 292.449 78.1201C288.849 76.2744 286.012 73.6312 283.938 70.1904C281.865 66.7497 280.828 62.7279 280.828 58.125C280.828 53.7728 281.888 49.8079 284.007 46.2305C286.126 42.653 289.134 39.8275 293.03 37.7539C296.927 35.6803 301.427 34.6436 306.531 34.6436C311.202 34.6436 315.942 35.5778 320.75 37.4463L322.151 47.7686L320.545 47.8369ZM361.253 72.4463C361.253 74.2008 361.697 75.5794 362.586 76.582C363.497 77.5618 364.785 78.1315 366.448 78.291C366.448 78.6328 366.437 78.9746 366.414 79.3164C366.391 79.6354 366.38 79.8633 366.38 80H349.563C349.563 79.8633 349.552 79.6354 349.529 79.3164C349.507 78.9746 349.495 78.6328 349.495 78.291C349.882 78.1087 350.634 77.8467 351.751 77.5049C352.617 77.2314 353.243 76.9808 353.631 76.7529C354.041 76.5023 354.349 76.0693 354.554 75.4541C354.782 74.8389 354.896 73.916 354.896 72.6855V60.2783C354.896 57.7718 354.36 55.778 353.289 54.2969C352.241 52.793 350.589 52.041 348.333 52.041C346.715 52.041 345.143 52.474 343.616 53.3398C342.112 54.1829 340.722 55.2767 339.446 56.6211V72.0361C339.446 74.0869 339.913 75.5908 340.848 76.5479C341.782 77.5049 343.309 78.0859 345.428 78.291L345.394 80H327.176C327.176 79.8633 327.164 79.6354 327.142 79.3164C327.119 78.9746 327.107 78.6328 327.107 78.291C331.095 77.972 333.089 75.887 333.089 72.0361V40.2148C332.861 39.873 332.36 39.4629 331.585 38.9844C330.81 38.4831 329.99 38.0387 329.124 37.6514C328.281 37.264 327.654 37.0475 327.244 37.002V35.8057L337.02 33.208L339.446 32.9688V53.75C341.246 51.9499 343.012 50.6055 344.744 49.7168C346.476 48.8053 348.481 48.3496 350.76 48.3496C353.927 48.3496 356.468 49.3636 358.382 51.3916C360.296 53.3968 361.253 56.4616 361.253 60.5859V72.4463ZM377.386 32.9688C378.479 32.9688 379.414 33.3561 380.188 34.1309C380.963 34.9056 381.351 35.8398 381.351 36.9336C381.351 38.0501 380.963 38.9958 380.188 39.7705C379.414 40.5225 378.479 40.8984 377.386 40.8984C376.269 40.8984 375.324 40.5225 374.549 39.7705C373.797 38.9958 373.421 38.0501 373.421 36.9336C373.421 35.8398 373.797 34.9056 374.549 34.1309C375.324 33.3561 376.269 32.9688 377.386 32.9688ZM374.651 55.1514C374.355 54.6273 373.797 54.1602 372.977 53.75C372.179 53.3171 371.347 52.9639 370.481 52.6904C369.638 52.3942 369.217 52.2575 369.217 52.2803L369.285 51.084L378.89 48.7598L381.009 48.623V72.4805C381.009 73.278 381.089 74.0299 381.248 74.7363C381.43 75.4427 381.954 76.1605 382.82 76.8896C383.709 77.6188 385.099 78.0859 386.99 78.291C386.99 79.043 386.979 79.6126 386.956 80H369.114C369.069 79.5898 369.046 79.0202 369.046 78.291L370.003 78.0176C371.006 77.7441 371.814 77.4707 372.43 77.1973C373.045 76.9238 373.569 76.5251 374.002 76.001C374.435 75.4541 374.651 74.7249 374.651 73.8135V55.1514ZM417.718 73.5742C417.239 75.1009 416.385 76.3997 415.154 77.4707C413.924 78.5417 412.477 79.3506 410.813 79.8975C409.15 80.4215 407.418 80.6836 405.618 80.6836C402.474 80.6836 399.751 79.9544 397.449 78.4961C395.171 77.015 393.439 75.0553 392.254 72.6172C391.069 70.179 390.477 67.5358 390.477 64.6875C390.477 61.6797 391.194 58.9339 392.63 56.4502C394.065 53.9437 396.082 51.9727 398.68 50.5371C401.277 49.0788 404.228 48.3496 407.532 48.3496C409.446 48.3496 411.201 48.6344 412.796 49.2041C414.391 49.751 415.644 50.5371 416.556 51.5625C417.49 52.5879 417.957 53.7728 417.957 55.1172C417.957 56.1426 417.627 56.8945 416.966 57.373C416.305 57.8288 415.599 58.0566 414.847 58.0566C414.14 58.0566 413.593 57.9313 413.206 57.6807C412.819 57.4072 412.534 57.0882 412.352 56.7236C412.192 56.3363 412.033 55.8008 411.873 55.1172C411.691 54.2513 411.463 53.5449 411.189 52.998C410.939 52.4512 410.46 51.9727 409.754 51.5625C409.048 51.1523 408.034 50.9245 406.712 50.8789C404.957 50.8105 403.317 51.2435 401.79 52.1777C400.263 53.0892 399.033 54.4564 398.099 56.2793C397.187 58.1022 396.731 60.2897 396.731 62.8418C396.731 65.2116 397.153 67.3877 397.996 69.3701C398.839 71.3525 400.07 72.9362 401.688 74.1211C403.328 75.306 405.288 75.8984 407.566 75.8984C409.549 75.8984 411.201 75.6592 412.522 75.1807C413.844 74.7021 415.211 73.9046 416.624 72.7881L417.718 73.5742ZM422.571 80L422.537 78.9062C422.537 78.5417 422.549 78.291 422.571 78.1543C423.893 77.8353 424.884 77.5505 425.545 77.2998C426.229 77.0492 426.787 76.639 427.22 76.0693C427.653 75.4997 427.869 74.7021 427.869 73.6768V40.2148C427.641 39.873 427.14 39.4629 426.365 38.9844C425.59 38.4831 424.77 38.0387 423.904 37.6514C423.061 37.264 422.435 37.0475 422.024 37.002V35.8057L431.8 33.208L434.227 32.9688V63.7646H437.029L447.967 53.0322C448.012 52.9183 448.035 52.793 448.035 52.6562C448.035 52.1322 447.819 51.7904 447.386 51.6309C446.976 51.4486 446.349 51.3118 445.506 51.2207C444.845 51.1523 444.367 51.0726 444.07 50.9814C443.774 50.8903 443.626 50.6966 443.626 50.4004C443.626 50.0814 443.66 49.7054 443.729 49.2725H458.221L458.323 50.4004C458.323 50.8789 457.378 51.3118 455.486 51.6992C453.937 52.0182 452.775 52.5081 452 53.1689L442.566 62.8418L451.59 74.5312C452.296 75.4655 453.196 76.2061 454.29 76.7529C455.384 77.2998 456.398 77.6758 457.332 77.8809C458.289 78.0859 458.95 78.1885 459.314 78.1885L459.212 80H442.293C442.27 79.8177 442.225 79.4759 442.156 78.9746C442.111 78.4733 442.099 78.2227 442.122 78.2227C443.444 78.2227 444.344 78.0745 444.822 77.7783C445.301 77.4593 445.54 77.1061 445.54 76.7188C445.54 76.5137 445.392 76.2516 445.096 75.9326L437.132 65.6445H434.227V72.4121C434.227 74.3717 434.716 75.7959 435.696 76.6846C436.699 77.5505 438.214 78.0859 440.242 78.291C440.242 78.6328 440.231 78.9746 440.208 79.3164C440.185 79.6582 440.174 79.8861 440.174 80H422.571ZM466.663 62.0215C466.64 62.2493 466.629 62.5798 466.629 63.0127C466.629 65.8838 467.142 68.2878 468.167 70.2246C469.215 72.1387 470.605 73.5628 472.337 74.4971C474.091 75.4085 476.051 75.8643 478.216 75.8643C481.087 75.8643 483.855 75.0439 486.521 73.4033L487.513 74.3604C486.966 75.682 486.043 76.8213 484.744 77.7783C483.468 78.7354 482.01 79.4645 480.369 79.9658C478.751 80.4443 477.179 80.6836 475.652 80.6836C472.781 80.6836 470.195 80.0114 467.894 78.667C465.615 77.3226 463.826 75.4427 462.527 73.0273C461.251 70.612 460.613 67.8434 460.613 64.7217C460.613 61.5544 461.308 58.7288 462.698 56.2451C464.088 53.7386 465.934 51.8018 468.235 50.4346C470.56 49.0446 473.043 48.3496 475.687 48.3496C477.851 48.3496 479.799 48.7939 481.531 49.6826C483.286 50.5485 484.71 51.779 485.804 53.374C486.897 54.9463 487.592 56.7578 487.889 58.8086C488.139 59.8568 488.265 60.8252 488.265 61.7139V62.0215H466.663ZM478.968 59.834C479.97 59.7884 480.813 59.6061 481.497 59.2871C481.338 56.5755 480.7 54.4564 479.583 52.9297C478.489 51.403 476.928 50.6396 474.9 50.6396C473.419 50.6396 472.098 51.084 470.936 51.9727C469.796 52.8613 468.873 54.0462 468.167 55.5273C467.461 56.9857 467.005 58.5921 466.8 60.3467L478.968 59.834ZM503.919 72.4121C503.919 74.3717 504.409 75.7959 505.389 76.6846C506.391 77.5505 507.907 78.0859 509.935 78.291C509.935 78.6328 509.923 78.9746 509.9 79.3164C509.878 79.6582 509.866 79.8861 509.866 80H492.264L492.229 78.9062C492.229 78.5417 492.241 78.291 492.264 78.1543C493.585 77.8353 494.576 77.5505 495.237 77.2998C495.921 77.0492 496.479 76.639 496.912 76.0693C497.345 75.4997 497.562 74.7021 497.562 73.6768V55.1514C497.288 54.6273 496.753 54.1602 495.955 53.75C495.158 53.3171 494.314 52.9639 493.426 52.6904C492.56 52.3942 492.127 52.2575 492.127 52.2803L492.229 51.1182L501.561 48.7939L503.646 48.6572L504.021 54.1943C505.275 52.5081 506.87 51.1182 508.807 50.0244C510.766 48.9079 512.874 48.3496 515.13 48.3496C518.434 48.3496 520.997 49.2839 522.82 51.1523C524.643 53.0208 525.634 55.8122 525.794 59.5264C525.862 60.9847 525.896 62.4772 525.896 64.0039V71.626C525.896 73.2894 525.999 74.4971 526.204 75.249C526.409 76.001 526.728 76.5251 527.161 76.8213C527.617 77.0947 528.369 77.391 529.417 77.71L530.853 78.1543C530.875 78.291 530.887 78.5417 530.887 78.9062L530.853 80H514.002C514.002 79.8633 513.991 79.6354 513.968 79.3164C513.945 78.9746 513.934 78.6328 513.934 78.291C514.093 78.2227 514.549 78.0859 515.301 77.8809C516.508 77.5391 517.443 77.1745 518.104 76.7871C518.787 76.3997 519.197 75.7731 519.334 74.9072C519.448 74.2464 519.505 73.3691 519.505 72.2754V64.6533C519.505 61.6227 519.391 59.2871 519.163 57.6465C518.958 56.0059 518.388 54.6615 517.454 53.6133C516.543 52.5651 515.062 52.041 513.011 52.041C511.393 52.041 509.832 52.5081 508.328 53.4424C506.847 54.3766 505.377 55.6185 503.919 57.168V72.4121Z" fill="#EA580C"/>
<path d="M306.994 120.706L297.3 121.303C297.134 120.474 296.778 119.728 296.231 119.065C295.684 118.386 294.963 117.847 294.068 117.45C293.19 117.035 292.138 116.828 290.911 116.828C289.271 116.828 287.887 117.176 286.76 117.872C285.633 118.552 285.07 119.463 285.07 120.607C285.07 121.518 285.434 122.289 286.163 122.918C286.893 123.548 288.144 124.054 289.917 124.435L296.827 125.827C300.54 126.589 303.307 127.815 305.13 129.506C306.953 131.196 307.864 133.417 307.864 136.168C307.864 138.67 307.127 140.866 305.652 142.755C304.194 144.644 302.188 146.119 299.636 147.18C297.101 148.224 294.176 148.746 290.862 148.746C285.807 148.746 281.78 147.693 278.781 145.589C275.798 143.468 274.049 140.584 273.536 136.938L283.951 136.391C284.266 137.933 285.028 139.109 286.238 139.921C287.448 140.717 288.997 141.114 290.886 141.114C292.742 141.114 294.234 140.758 295.361 140.045C296.504 139.316 297.084 138.38 297.101 137.237C297.084 136.275 296.678 135.488 295.883 134.875C295.087 134.245 293.861 133.765 292.204 133.433L285.592 132.116C281.863 131.37 279.087 130.077 277.264 128.238C275.458 126.398 274.555 124.054 274.555 121.203C274.555 118.75 275.218 116.638 276.543 114.864C277.886 113.091 279.767 111.724 282.186 110.763C284.622 109.802 287.473 109.321 290.737 109.321C295.56 109.321 299.355 110.34 302.122 112.379C304.906 114.417 306.53 117.193 306.994 120.706ZM314.532 162.318V109.818H324.973V116.232H325.445C325.909 115.204 326.58 114.16 327.459 113.099C328.354 112.022 329.514 111.127 330.939 110.415C332.381 109.686 334.17 109.321 336.308 109.321C339.092 109.321 341.661 110.05 344.014 111.509C346.367 112.95 348.248 115.129 349.657 118.046C351.065 120.946 351.77 124.584 351.77 128.959C351.77 133.218 351.082 136.814 349.706 139.747C348.348 142.664 346.492 144.876 344.138 146.384C341.802 147.876 339.183 148.621 336.283 148.621C334.228 148.621 332.48 148.282 331.038 147.602C329.613 146.923 328.445 146.069 327.533 145.042C326.622 143.998 325.926 142.946 325.445 141.885H325.122V162.318H314.532ZM324.898 128.909C324.898 131.179 325.213 133.16 325.843 134.85C326.473 136.54 327.384 137.858 328.577 138.803C329.77 139.731 331.22 140.195 332.927 140.195C334.651 140.195 336.109 139.722 337.302 138.778C338.496 137.817 339.399 136.491 340.012 134.8C340.642 133.094 340.956 131.13 340.956 128.909C340.956 126.705 340.65 124.766 340.037 123.092C339.424 121.419 338.52 120.109 337.327 119.165C336.134 118.22 334.667 117.748 332.927 117.748C331.204 117.748 329.746 118.204 328.552 119.115C327.376 120.027 326.473 121.319 325.843 122.993C325.213 124.667 324.898 126.639 324.898 128.909ZM376.081 148.746C372.22 148.746 368.88 147.925 366.063 146.285C363.262 144.628 361.1 142.324 359.575 139.374C358.05 136.408 357.288 132.969 357.288 129.058C357.288 125.114 358.05 121.667 359.575 118.717C361.1 115.751 363.262 113.447 366.063 111.807C368.88 110.15 372.22 109.321 376.081 109.321C379.942 109.321 383.273 110.15 386.074 111.807C388.891 113.447 391.062 115.751 392.586 118.717C394.111 121.667 394.873 125.114 394.873 129.058C394.873 132.969 394.111 136.408 392.586 139.374C391.062 142.324 388.891 144.628 386.074 146.285C383.273 147.925 379.942 148.746 376.081 148.746ZM376.131 140.543C377.887 140.543 379.354 140.045 380.53 139.051C381.707 138.04 382.594 136.665 383.19 134.925C383.803 133.185 384.11 131.204 384.11 128.984C384.11 126.763 383.803 124.783 383.19 123.043C382.594 121.303 381.707 119.927 380.53 118.916C379.354 117.905 377.887 117.4 376.131 117.4C374.357 117.4 372.866 117.905 371.656 118.916C370.463 119.927 369.56 121.303 368.947 123.043C368.35 124.783 368.052 126.763 368.052 128.984C368.052 131.204 368.35 133.185 368.947 134.925C369.56 136.665 370.463 138.04 371.656 139.051C372.866 140.045 374.357 140.543 376.131 140.543ZM422.068 109.818V117.773H399.074V109.818H422.068ZM404.295 100.67H414.884V136.267C414.884 137.245 415.033 138.007 415.331 138.554C415.63 139.084 416.044 139.457 416.574 139.673C417.121 139.888 417.751 139.996 418.464 139.996C418.961 139.996 419.458 139.954 419.955 139.871C420.452 139.772 420.833 139.697 421.099 139.648L422.764 147.528C422.234 147.693 421.488 147.884 420.527 148.099C419.566 148.331 418.397 148.472 417.022 148.522C414.47 148.621 412.233 148.282 410.31 147.503C408.404 146.724 406.921 145.514 405.861 143.874C404.8 142.233 404.278 140.161 404.295 137.659V100.67Z" fill="#EA580C"/>
</svg>
